<svg xmlns="http://www.w3.org/2000/svg" xmlns:xlink="http://www.w3.org/1999/xlink" width="375" zoomAndPan="magnify" viewBox="0 0 281.25 281.249989" height="375" preserveAspectRatio="xMidYMid meet" version="1.0"><defs><clipPath id="id1"><path d="M 0 25 L 280.503906 25 L 280.503906 253 L 0 253 Z M 0 25 " clip-rule="nonzero"/></clipPath><clipPath id="id2"><path d="M 196.398438 108.890625 L 208.378906 108.890625 L 208.378906 122.074219 L 196.398438 122.074219 Z M 196.398438 108.890625 " clip-rule="nonzero"/></clipPath><clipPath id="id3"><path d="M 0.8125 32.277344 L 280.503906 32.277344 L 280.503906 248.421875 L 0.8125 248.421875 Z M 0.8125 32.277344 " clip-rule="nonzero"/></clipPath><clipPath id="id4"><path d="M 193.535156 111.90625 L 204.882812 111.90625 L 204.882812 124.390625 L 193.535156 124.390625 Z M 193.535156 111.90625 " clip-rule="nonzero"/></clipPath></defs><g clip-path="url(#id1)"><path fill="#000000" d="M 74.230469 119.6875 C 68.421875 123.035156 66.386719 128.703125 65.707031 135.246094 L 33.171875 116.441406 L 19.804688 124.148438 L 19.804688 132.386719 L 65.367188 158.703125 L 65.367188 201.839844 C 65.367188 210.761719 72.246094 215.898438 80.089844 220.550781 L 132.09375 250.601562 C 139.792969 255.011719 147.683594 251.621094 155.625 247.15625 L 207.628906 217.109375 C 215.234375 212.648438 216.246094 204.121094 216.347656 195.007812 L 216.347656 158.703125 L 275.808594 124.339844 C 291.15625 115.472656 295.125 111.835938 275.808594 100.6875 L 154.5625 30.652344 C 141.535156 23.089844 139.308594 23.625 125.945312 31.332031 L 5.90625 100.6875 C -13.410156 111.835938 -9.394531 115.472656 5.90625 124.339844 L 5.90625 157.007812 C -1.0625 159.820312 -2.175781 169.320312 4.019531 173.683594 C 3.199219 174.796875 2.664062 176.203125 2.664062 177.753906 L 2.664062 209.5 L 16.222656 209.5 L 16.222656 177.753906 C 16.222656 176.25 15.738281 174.84375 14.867188 173.683594 C 20.484375 169.753906 20.339844 161.710938 14.480469 157.78125 L 12.980469 157.007812 L 12.980469 120.222656 L 131.5625 51.6875 C 142.40625 45.386719 140.90625 46.40625 154.996094 54.546875 L 154.996094 89.34375 L 149.621094 86.246094 C 141.921875 81.835938 134.03125 85.226562 126.089844 89.683594 L 74.179688 119.6875 Z M 216.246094 89.929688 L 246.464844 107.378906 C 253.484375 111.445312 256.148438 111.980469 252.226562 114.257812 L 216.347656 135.003906 L 216.246094 89.878906 Z M 195.863281 113 C 211.066406 121.769531 210.972656 122.59375 195.863281 113 Z M 85.851562 187.445312 L 85.851562 149.496094 C 85.898438 138.734375 88.46875 135.246094 97.425781 129.964844 L 129.234375 111.59375 C 138.292969 106.410156 142.601562 105.96875 151.898438 111.300781 L 175.382812 124.875 L 175.382812 66.421875 L 195.863281 78.246094 L 195.863281 186.914062 C 195.816406 197.332031 194.070312 201.308594 184.777344 206.738281 L 151.945312 225.734375 L 140.859375 232.132812 L 129.285156 225.445312 L 97.472656 207.078125 C 88.46875 201.839844 85.898438 198.304688 85.898438 187.542969 Z M 85.851562 187.445312 " fill-opacity="1" fill-rule="evenodd"/></g><path fill="#000000" d="M 131.464844 133.886719 L 110.351562 146.105469 C 106.769531 148.1875 106.335938 152.160156 106.285156 156.378906 L 106.285156 183.667969 C 106.285156 187.785156 109.527344 190.160156 113.160156 192.339844 L 114.128906 192.921875 L 136.742188 206.007812 L 140.808594 208.335938 L 171.3125 190.691406 C 174.847656 188.660156 175.332031 184.683594 175.382812 180.46875 L 175.382812 148.429688 L 144.875 130.835938 L 140.808594 128.511719 L 131.414062 133.9375 Z M 131.464844 133.886719 " fill-opacity="1" fill-rule="evenodd"/><g clip-path="url(#id2)"><path fill="#000000" d="M 196.402344 108.890625 L 208.375 108.890625 L 208.375 122.074219 L 196.402344 122.074219 L 196.402344 108.890625 " fill-opacity="1" fill-rule="nonzero"/></g><g clip-path="url(#id3)"><path fill="#ececec" d="M 77.847656 122.128906 C 72.34375 125.296875 70.417969 130.664062 69.777344 136.863281 L 38.964844 119.054688 L 26.308594 126.351562 L 26.308594 134.152344 L 69.457031 159.078125 L 69.457031 199.925781 C 69.457031 208.371094 75.96875 213.238281 83.394531 217.644531 L 132.640625 246.101562 C 139.929688 250.277344 147.40625 247.066406 154.925781 242.839844 L 204.171875 214.382812 C 211.371094 210.160156 212.332031 202.085938 212.425781 193.453125 L 212.425781 159.078125 L 268.734375 126.535156 C 283.269531 118.136719 287.027344 114.695312 268.734375 104.136719 L 153.917969 37.816406 C 141.582031 30.652344 139.472656 31.160156 126.816406 38.457031 L 13.148438 104.136719 C -5.144531 114.695312 -1.34375 118.136719 13.148438 126.535156 L 13.148438 157.46875 C 6.546875 160.132812 5.492188 169.128906 11.359375 173.261719 C 10.582031 174.316406 10.078125 175.648438 10.078125 177.113281 L 10.078125 207.175781 L 22.914062 207.175781 L 22.914062 177.113281 C 22.914062 175.691406 22.457031 174.363281 21.632812 173.261719 C 26.949219 169.539062 26.8125 161.921875 21.265625 158.203125 L 19.84375 157.46875 L 19.84375 122.636719 L 132.140625 57.734375 C 142.410156 51.769531 140.984375 52.730469 154.332031 60.441406 L 154.332031 93.394531 L 149.242188 90.460938 C 141.949219 86.285156 134.476562 89.496094 126.957031 93.71875 L 77.800781 122.128906 Z M 212.332031 93.949219 L 240.949219 110.472656 C 247.59375 114.324219 250.117188 114.832031 246.402344 116.988281 L 212.425781 136.632812 L 212.332031 93.902344 Z M 193.03125 115.796875 C 207.425781 124.101562 207.335938 124.882812 193.03125 115.796875 Z M 88.851562 186.292969 L 88.851562 150.355469 C 88.898438 140.167969 91.328125 136.863281 99.8125 131.859375 L 129.9375 114.464844 C 138.511719 109.554688 142.59375 109.140625 151.398438 114.1875 L 173.636719 127.042969 L 173.636719 71.6875 L 193.03125 82.886719 L 193.03125 185.789062 C 192.984375 195.65625 191.332031 199.421875 182.53125 204.5625 L 151.441406 222.550781 L 140.941406 228.613281 L 129.984375 222.277344 L 99.859375 204.882812 C 91.328125 199.925781 88.898438 196.578125 88.898438 186.386719 Z M 88.851562 186.292969 " fill-opacity="1" fill-rule="evenodd"/></g><path fill="#ececec" d="M 132.046875 135.578125 L 112.054688 147.144531 C 108.660156 149.117188 108.25 152.878906 108.203125 156.875 L 108.203125 182.714844 C 108.203125 186.617188 111.273438 188.867188 114.710938 190.929688 L 115.628906 191.480469 L 137.042969 203.871094 L 140.894531 206.074219 L 169.78125 189.367188 C 173.128906 187.441406 173.589844 183.675781 173.636719 179.6875 L 173.636719 149.347656 L 144.746094 132.6875 L 140.894531 130.484375 L 132 135.625 Z M 132.046875 135.578125 " fill-opacity="1" fill-rule="evenodd"/><g clip-path="url(#id4)"><path fill="#ececec" d="M 193.539062 111.90625 L 204.878906 111.90625 L 204.878906 124.390625 L 193.539062 124.390625 L 193.539062 111.90625 " fill-opacity="1" fill-rule="nonzero"/></g></svg>