<svg xmlns="http://www.w3.org/2000/svg" xmlns:xlink="http://www.w3.org/1999/xlink" width="598" zoomAndPan="magnify" viewBox="0 0 448.5 500.249999" height="667" preserveAspectRatio="xMidYMid meet" version="1.0"><defs><clipPath id="002e114d66"><path d="M 0.0859375 0 L 447.914062 0 L 447.914062 499.5 L 0.0859375 499.5 Z M 0.0859375 0 " clip-rule="nonzero"/></clipPath><clipPath id="81aca91f9f"><path d="M 0.0859375 354 L 214 354 L 214 499.5 L 0.0859375 499.5 Z M 0.0859375 354 " clip-rule="nonzero"/></clipPath><clipPath id="37d244fbf2"><path d="M 39.449219 295.523438 L 271.558594 472.09375 L 94.988281 704.203125 L -137.121094 527.632812 Z M 39.449219 295.523438 " clip-rule="nonzero"/></clipPath><clipPath id="b3500cf58d"><path d="M 289 467 L 346 467 L 346 499.5 L 289 499.5 Z M 289 467 " clip-rule="nonzero"/></clipPath><clipPath id="944341553e"><path d="M 306.535156 449.988281 L 362.523438 484.882812 L 327.628906 540.871094 L 271.636719 505.976562 Z M 306.535156 449.988281 " clip-rule="nonzero"/></clipPath><clipPath id="662436087d"><path d="M 309 486 L 311 486 L 311 489 L 309 489 Z M 309 486 " clip-rule="nonzero"/></clipPath><clipPath id="10081c0a1e"><path d="M 306.371094 483.417969 L 330.851562 486.980469 L 327.9375 507.011719 L 303.453125 503.449219 Z M 306.371094 483.417969 " clip-rule="nonzero"/></clipPath><clipPath id="4aca9f10ab"><path d="M 306.371094 483.417969 L 330.851562 486.980469 L 327.9375 507.011719 L 303.453125 503.449219 Z M 306.371094 483.417969 " clip-rule="nonzero"/></clipPath><clipPath id="d577637099"><path d="M 306 484 L 329 484 L 329 499.5 L 306 499.5 Z M 306 484 " clip-rule="nonzero"/></clipPath><clipPath id="979ed2c7f1"><path d="M 306.371094 483.417969 L 330.851562 486.980469 L 327.9375 507.011719 L 303.453125 503.449219 Z M 306.371094 483.417969 " clip-rule="nonzero"/></clipPath><clipPath id="706673a6a7"><path d="M 306.371094 483.417969 L 330.851562 486.980469 L 327.9375 507.011719 L 303.453125 503.449219 Z M 306.371094 483.417969 " clip-rule="nonzero"/></clipPath><clipPath id="0b9594ea44"><path d="M 13.4375 0 L 179.871094 0 L 179.871094 330.464844 L 13.4375 330.464844 Z M 13.4375 0 " clip-rule="nonzero"/></clipPath><clipPath id="d30a881fdc"><path d="M 28.941406 17.59375 L 164.519531 17.59375 L 164.519531 122 L 28.941406 122 Z M 28.941406 17.59375 " clip-rule="nonzero"/></clipPath><clipPath id="6c42ba5ed4"><path d="M 122.175781 56.117188 L 127.664062 56.117188 L 127.664062 62.15625 L 122.175781 62.15625 Z M 122.175781 56.117188 " clip-rule="nonzero"/></clipPath><clipPath id="d7fc81e8cd"><path d="M 304 222 L 447.914062 222 L 447.914062 468 L 304 468 Z M 304 222 " clip-rule="nonzero"/></clipPath><clipPath id="dd5e9c490e"><path d="M 249.492188 270.679688 L 501.433594 167.78125 L 604.332031 419.722656 L 352.390625 522.621094 Z M 249.492188 270.679688 " clip-rule="nonzero"/></clipPath><clipPath id="8d198ae0fd"><path d="M 358 265 L 447.914062 265 L 447.914062 396 L 358 396 Z M 358 265 " clip-rule="nonzero"/></clipPath><clipPath id="8b14dfec9c"><path d="M 342.011719 381.847656 L 380.515625 253.289062 L 465.261719 278.671875 L 426.757812 407.226562 Z M 342.011719 381.847656 " clip-rule="nonzero"/></clipPath><clipPath id="b7db3483fd"><path d="M 1 423 L 122 423 L 122 499.5 L 1 499.5 Z M 1 423 " clip-rule="nonzero"/></clipPath><clipPath id="624bf192c6"><path d="M 32.222656 393.398438 L 151.800781 454.3125 L 90.882812 573.890625 L -28.691406 512.972656 Z M 32.222656 393.398438 " clip-rule="nonzero"/></clipPath><clipPath id="ae6f7dbd74"><path d="M 341 55 L 378 55 L 378 97 L 341 97 Z M 341 55 " clip-rule="nonzero"/></clipPath><clipPath id="4a604e7654"><path d="M 339.304688 54.113281 L 370.652344 44.84375 L 385.238281 94.15625 L 353.890625 103.429688 Z M 339.304688 54.113281 " clip-rule="nonzero"/></clipPath><clipPath id="a42507c3c7"><path d="M 339 53 L 380 53 L 380 98 L 339 98 Z M 339 53 " clip-rule="nonzero"/></clipPath><clipPath id="962967dfda"><path d="M 339.304688 54.113281 L 370.652344 44.84375 L 385.238281 94.15625 L 353.890625 103.429688 Z M 339.304688 54.113281 " clip-rule="nonzero"/></clipPath><clipPath id="4936ce5e38"><path d="M 226 397 L 257 397 L 257 448 L 226 448 Z M 226 397 " clip-rule="nonzero"/></clipPath><clipPath id="0ff5e7c3b2"><path d="M 253.085938 395.449219 L 276.640625 418.113281 L 240.988281 455.171875 L 217.429688 432.507812 Z M 253.085938 395.449219 " clip-rule="nonzero"/></clipPath><clipPath id="b361f45331"><path d="M 224 396 L 258 396 L 258 450 L 224 450 Z M 224 396 " clip-rule="nonzero"/></clipPath><clipPath id="26d61a4ef1"><path d="M 253.085938 395.449219 L 276.640625 418.113281 L 240.988281 455.171875 L 217.429688 432.507812 Z M 253.085938 395.449219 " clip-rule="nonzero"/></clipPath></defs><g clip-path="url(#002e114d66)"><path fill="#ffffff" d="M 0.0859375 0 L 448.414062 0 L 448.414062 506.804688 L 0.0859375 506.804688 Z M 0.0859375 0 " fill-opacity="1" fill-rule="nonzero"/><path fill="#ffffff" d="M 0.0859375 0 L 448.414062 0 L 448.414062 500.058594 L 0.0859375 500.058594 Z M 0.0859375 0 " fill-opacity="1" fill-rule="nonzero"/><path fill="#ececec" d="M 0.0859375 0 L 448.414062 0 L 448.414062 500.058594 L 0.0859375 500.058594 Z M 0.0859375 0 " fill-opacity="1" fill-rule="nonzero"/></g><g clip-path="url(#81aca91f9f)"><g clip-path="url(#37d244fbf2)"><path fill="#215598" d="M 155.503906 383.808594 C 91.40625 335.050781 -0.078125 347.484375 -48.835938 411.578125 C -97.597656 475.675781 -85.164062 567.160156 -21.066406 615.917969 C 43.027344 664.679688 134.515625 652.246094 183.273438 588.148438 C 232.03125 524.054688 219.597656 432.566406 155.503906 383.808594 " fill-opacity="1" fill-rule="nonzero"/></g></g><g clip-path="url(#b3500cf58d)"><g clip-path="url(#944341553e)"><path fill="#ececec" d="M 334.53125 467.433594 L 345.078125 512.878906 L 299.632812 523.425781 L 289.085938 477.980469 L 334.53125 467.433594 " fill-opacity="1" fill-rule="nonzero"/></g></g><g clip-path="url(#662436087d)"><g clip-path="url(#10081c0a1e)"><g clip-path="url(#4aca9f10ab)"><path fill="#1c2120" d="M 310.058594 487.683594 C 309.894531 487.660156 309.785156 487.550781 309.796875 487.46875 C 309.808594 487.382812 309.945312 487.308594 310.109375 487.332031 C 310.277344 487.359375 310.382812 487.46875 310.371094 487.550781 C 310.359375 487.632812 310.226562 487.707031 310.058594 487.683594 Z M 310.167969 486.921875 C 309.78125 486.867188 309.429688 487.082031 309.382812 487.40625 C 309.335938 487.730469 309.609375 488.039062 310 488.09375 C 310.386719 488.152344 310.738281 487.933594 310.785156 487.609375 C 310.832031 487.289062 310.558594 486.976562 310.167969 486.921875 " fill-opacity="1" fill-rule="nonzero"/></g></g></g><g clip-path="url(#d577637099)"><g clip-path="url(#979ed2c7f1)"><g clip-path="url(#706673a6a7)"><path fill="#1c2120" d="M 324.371094 505.433594 C 322.605469 505.789062 320.671875 504.695312 319.257812 503.898438 C 318.898438 503.691406 318.585938 503.515625 318.308594 503.378906 C 317.308594 502.894531 316.257812 502.941406 315.472656 503.429688 C 315.855469 503.117188 316.429688 502.835938 317.257812 502.792969 C 318.609375 502.726562 319.277344 503.164062 320.050781 503.667969 C 320.644531 504.058594 321.320312 504.5 322.386719 504.710938 C 325.210938 505.269531 326.671875 503.59375 327.070312 501.984375 C 327.40625 500.613281 326.648438 499.15625 325.691406 498.527344 C 325.914062 498.332031 326.082031 498.125 326.191406 497.917969 C 326.65625 498.234375 327.804688 499.222656 327.863281 501.273438 C 327.933594 503.808594 326.027344 505.097656 324.371094 505.433594 Z M 322.574219 499.082031 C 322.539062 498.929688 322.476562 498.753906 322.378906 498.539062 C 322.328125 498.433594 322.203125 498.390625 322.097656 498.4375 C 321.992188 498.484375 321.949219 498.609375 321.996094 498.710938 C 322.105469 498.945312 322.160156 499.113281 322.179688 499.234375 C 322.179688 499.261719 322.179688 499.289062 322.1875 499.3125 C 322.195312 499.5 322.09375 499.566406 321.964844 499.648438 C 321.910156 499.683594 321.855469 499.722656 321.796875 499.769531 C 321.671875 499.875 321.609375 499.996094 321.554688 500.105469 C 321.464844 500.28125 321.40625 500.390625 321.039062 500.402344 C 320.4375 500.414062 317.9375 500.246094 317.179688 500.191406 C 317.1875 500.179688 317.195312 500.167969 317.207031 500.152344 C 317.28125 500.070312 317.5 499.9375 318.125 499.988281 C 319.558594 500.097656 320.277344 499.582031 320.308594 499.558594 L 320.667969 499.292969 L 320.230469 499.191406 C 320.21875 499.1875 318.890625 498.863281 318.054688 497.722656 C 317.816406 497.394531 317.757812 497.105469 317.882812 496.835938 C 318.0625 496.433594 318.589844 496.199219 318.714844 496.179688 C 318.820312 496.1875 318.917969 496.113281 318.933594 496.003906 C 318.949219 495.890625 318.871094 495.785156 318.753906 495.769531 C 318.535156 495.734375 317.867188 496.042969 317.566406 496.53125 C 317.453125 496.71875 317.363281 496.976562 317.414062 497.296875 C 316.886719 497.089844 316.398438 496.894531 316.144531 496.789062 C 316.21875 496.546875 316.269531 496.304688 316.269531 496.085938 C 316.269531 495.972656 316.175781 495.878906 316.0625 495.875 C 315.945312 495.875 315.851562 495.964844 315.847656 496.082031 C 315.847656 496.296875 315.789062 496.539062 315.703125 496.785156 C 315.695312 496.796875 315.6875 496.808594 315.683594 496.824219 C 315.675781 496.84375 315.671875 496.863281 315.667969 496.882812 C 315.300781 497.84375 314.496094 498.882812 314.488281 498.898438 L 314.472656 498.917969 C 314.46875 498.921875 314.152344 499.445312 313.617188 499.441406 C 313.125 499.441406 312.257812 499.3125 311.878906 499.253906 C 311.886719 499.234375 311.898438 499.21875 311.910156 499.203125 C 311.960938 499.144531 312.074219 499.117188 312.226562 499.128906 C 312.46875 499.144531 313.277344 499.179688 313.5 498.953125 C 313.535156 498.917969 313.558594 498.875 313.570312 498.832031 C 313.652344 498.644531 314.105469 497.554688 314.0625 496.929688 C 314.0625 496.925781 314.0625 496.921875 314.058594 496.917969 C 314.058594 496.917969 314.058594 496.914062 314.058594 496.914062 C 314.003906 496.25 313.644531 495.785156 313.296875 495.335938 C 313.183594 495.1875 313.0625 495.03125 312.957031 494.871094 C 312.246094 493.789062 311.3125 491.699219 311.074219 491.085938 C 310.875 490.566406 309.519531 489.863281 308.148438 489.1875 C 307.992188 489.109375 307.855469 489.042969 307.75 488.992188 C 307.816406 488.949219 307.933594 488.886719 308.136719 488.800781 C 308.382812 488.898438 308.570312 488.964844 308.589844 488.972656 C 308.699219 489.007812 308.816406 488.953125 308.855469 488.84375 C 308.894531 488.738281 308.835938 488.617188 308.726562 488.578125 C 308.625 488.542969 308.457031 488.480469 308.269531 488.40625 C 308.238281 488.386719 308.207031 488.371094 308.167969 488.367188 C 307.835938 488.230469 307.464844 488.0625 307.277344 487.921875 C 306.910156 487.652344 306.421875 487.105469 306.46875 486.851562 C 306.859375 486.609375 309.953125 485.882812 310.855469 485.824219 C 311.539062 485.78125 312.714844 485.925781 313.601562 486.28125 C 313.066406 486.65625 312.679688 487.21875 312.652344 487.261719 C 312.589844 487.355469 312.613281 487.484375 312.710938 487.550781 C 312.769531 487.589844 312.84375 487.59375 312.90625 487.570312 C 312.945312 487.554688 312.976562 487.527344 313.003906 487.492188 C 313.011719 487.476562 314.035156 486.019531 314.824219 486.441406 C 315.136719 486.605469 315.1875 486.894531 315.175781 487.109375 C 315.144531 487.71875 314.554688 488.558594 313.484375 488.988281 C 313.375 489.03125 313.324219 489.152344 313.367188 489.261719 C 313.398438 489.332031 313.460938 489.378906 313.53125 489.386719 C 313.570312 489.394531 313.605469 489.390625 313.640625 489.375 C 314.503906 489.027344 315.070312 488.460938 315.363281 487.910156 C 315.488281 488.09375 315.816406 488.550781 316.878906 488.4375 C 317.050781 488.417969 317.238281 488.386719 317.453125 488.347656 C 318.644531 488.136719 320.4375 487.824219 322.660156 489.324219 C 325.222656 491.058594 325.886719 496.1875 325.914062 497.367188 C 325.921875 497.664062 325.699219 498 325.292969 498.316406 C 324.632812 498.828125 323.484375 499.253906 322.574219 499.082031 Z M 316.769531 498.453125 C 316.777344 498.441406 316.785156 498.429688 316.796875 498.417969 C 316.867188 498.332031 317.085938 498.199219 317.714844 498.246094 C 317.808594 498.253906 317.886719 498.253906 317.945312 498.25 C 318.042969 498.359375 318.144531 498.460938 318.246094 498.554688 C 317.613281 498.515625 317.0625 498.476562 316.769531 498.453125 Z M 312.644531 497.871094 C 312.15625 497.867188 311.289062 497.738281 310.910156 497.679688 C 310.917969 497.660156 310.925781 497.644531 310.941406 497.628906 C 310.992188 497.570312 311.101562 497.546875 311.257812 497.554688 C 311.5 497.570312 312.304688 497.605469 312.53125 497.382812 C 312.566406 497.347656 312.589844 497.304688 312.597656 497.257812 C 312.664062 497.109375 312.96875 496.394531 313.074219 495.726562 C 313.347656 496.089844 313.585938 496.449219 313.636719 496.910156 C 313.480469 497.207031 313.050781 497.871094 312.644531 497.871094 Z M 314.808594 485.378906 C 314.964844 485.488281 315.050781 485.628906 315.066406 485.800781 C 315.074219 485.90625 315.054688 486.003906 315.03125 486.078125 C 315.027344 486.078125 315.027344 486.078125 315.023438 486.074219 C 314.699219 485.902344 314.371094 485.917969 314.066406 486.03125 C 313.859375 485.929688 313.632812 485.839844 313.398438 485.765625 C 313.777344 485.449219 314.433594 485.121094 314.808594 485.378906 Z M 326.328125 497.503906 C 326.332031 497.457031 326.335938 497.40625 326.335938 497.359375 C 326.304688 496.058594 325.636719 490.835938 322.894531 488.984375 C 320.53125 487.386719 318.558594 487.730469 317.378906 487.9375 C 317.167969 487.972656 316.988281 488.007812 316.832031 488.023438 C 316.007812 488.113281 315.804688 487.8125 315.707031 487.671875 C 315.691406 487.648438 315.667969 487.605469 315.640625 487.554688 C 315.617188 487.511719 315.589844 487.457031 315.558594 487.402344 C 315.578125 487.308594 315.59375 487.21875 315.597656 487.132812 C 315.613281 486.832031 315.53125 486.566406 315.367188 486.359375 C 315.445312 486.214844 315.492188 486.015625 315.488281 485.828125 C 315.484375 485.605469 315.402344 485.28125 315.050781 485.039062 C 314.386719 484.585938 313.371094 485.152344 312.925781 485.632812 C 312.148438 485.441406 311.339844 485.378906 310.828125 485.410156 C 310.386719 485.4375 309.316406 485.640625 308.21875 485.898438 C 306.207031 486.375 306.132812 486.554688 306.089844 486.660156 C 305.804688 487.347656 307.011719 488.246094 307.027344 488.257812 C 307.171875 488.363281 307.394531 488.480469 307.625 488.585938 C 307.398438 488.710938 307.265625 488.835938 307.261719 489 C 307.257812 489.074219 307.28125 489.214844 307.46875 489.3125 C 307.578125 489.371094 307.75 489.457031 307.960938 489.558594 C 308.660156 489.90625 310.523438 490.820312 310.679688 491.230469 C 310.921875 491.855469 311.878906 493.988281 312.605469 495.097656 C 312.628906 495.132812 312.65625 495.171875 312.683594 495.207031 C 312.734375 495.851562 312.292969 496.910156 312.214844 497.089844 C 312.109375 497.125 311.792969 497.175781 311.28125 497.140625 C 310.988281 497.121094 310.765625 497.195312 310.625 497.355469 C 310.425781 497.574219 310.480469 497.863281 310.484375 497.894531 L 310.511719 498.035156 L 310.65625 498.058594 C 310.675781 498.0625 310.882812 498.097656 311.164062 498.140625 C 311.605469 498.203125 312.234375 498.285156 312.644531 498.285156 C 312.96875 498.285156 313.253906 498.089844 313.480469 497.855469 C 313.382812 498.179688 313.257812 498.488281 313.183594 498.664062 C 313.078125 498.699219 312.761719 498.746094 312.253906 498.714844 C 311.957031 498.695312 311.734375 498.765625 311.59375 498.925781 C 311.398438 499.148438 311.449219 499.4375 311.453125 499.46875 L 311.484375 499.609375 L 311.625 499.632812 C 311.648438 499.636719 311.851562 499.671875 312.132812 499.710938 C 312.574219 499.777344 313.207031 499.855469 313.617188 499.859375 C 314.34375 499.863281 314.765625 499.242188 314.828125 499.140625 C 314.914062 499.03125 315.605469 498.121094 316 497.179688 C 316.320312 497.308594 316.972656 497.574219 317.617188 497.820312 C 317.617188 497.820312 317.621094 497.824219 317.621094 497.828125 C 317.066406 497.800781 316.679688 497.910156 316.472656 498.148438 C 316.265625 498.390625 316.328125 498.664062 316.335938 498.695312 L 316.371094 498.839844 L 316.523438 498.851562 C 316.535156 498.851562 317.648438 498.9375 318.824219 499.003906 C 319.121094 499.195312 319.398438 499.332031 319.625 499.421875 C 319.308594 499.527344 318.820312 499.625 318.15625 499.574219 C 317.53125 499.523438 317.105469 499.632812 316.882812 499.890625 C 316.675781 500.132812 316.734375 500.40625 316.742188 500.433594 L 316.78125 500.582031 L 316.933594 500.59375 C 317.070312 500.601562 320.324219 500.835938 321.054688 500.816406 C 321.671875 500.800781 321.820312 500.507812 321.929688 500.292969 C 321.972656 500.207031 322.011719 500.136719 322.070312 500.085938 C 322.109375 500.054688 322.152344 500.027344 322.199219 499.996094 C 322.386719 499.875 322.546875 499.742188 322.59375 499.507812 C 322.59375 499.507812 322.597656 499.507812 322.597656 499.507812 C 323.523438 499.644531 324.601562 499.289062 325.335938 498.800781 C 326.222656 499.285156 326.960938 500.660156 326.660156 501.882812 C 326.292969 503.382812 324.996094 504.808594 322.46875 504.304688 C 321.484375 504.105469 320.871094 503.707031 320.28125 503.320312 C 319.480469 502.800781 318.726562 502.304688 317.234375 502.378906 C 315.226562 502.476562 314.367188 503.902344 314.28125 504.539062 C 314.242188 504.824219 314.378906 504.910156 314.460938 504.9375 C 314.476562 504.941406 314.488281 504.945312 314.503906 504.949219 C 314.730469 504.980469 314.890625 504.691406 314.960938 504.566406 C 315.550781 503.492188 316.882812 503.148438 318.121094 503.753906 C 318.386719 503.882812 318.695312 504.054688 319.050781 504.257812 C 320.519531 505.089844 322.535156 506.226562 324.457031 505.839844 C 326.269531 505.472656 328.363281 504.054688 328.28125 501.265625 C 328.214844 498.859375 326.789062 497.789062 326.328125 497.503906 " fill-opacity="1" fill-rule="nonzero"/></g></g></g><g clip-path="url(#0b9594ea44)"><path fill="#215598" d="M 13.4375 -5.398438 L 13.4375 276.066406 L 96.578125 330.457031 L 179.871094 276.066406 L 179.871094 -5.398438 L 13.4375 -5.398438 " fill-opacity="1" fill-rule="nonzero"/></g><g clip-path="url(#d30a881fdc)"><path fill="#ececec" d="M 66.207031 61.0625 C 63.546875 62.59375 62.613281 65.191406 62.304688 68.191406 L 47.398438 59.574219 L 41.273438 63.105469 L 41.273438 66.878906 L 62.148438 78.9375 L 62.148438 98.699219 C 62.148438 102.785156 65.300781 105.136719 68.890625 107.269531 L 92.714844 121.035156 C 96.242188 123.054688 99.859375 121.503906 103.496094 119.457031 L 127.320312 105.691406 C 130.804688 103.648438 131.269531 99.742188 131.3125 95.566406 L 131.3125 78.9375 L 158.554688 63.195312 C 165.585938 59.128906 167.402344 57.464844 158.554688 52.359375 L 103.007812 20.273438 C 97.042969 16.808594 96.019531 17.054688 89.898438 20.585938 L 34.910156 52.359375 C 26.058594 57.464844 27.898438 59.128906 34.910156 63.195312 L 34.910156 78.160156 C 31.714844 79.445312 31.207031 83.800781 34.042969 85.796875 C 33.667969 86.308594 33.421875 86.953125 33.421875 87.664062 L 33.421875 102.207031 L 39.632812 102.207031 L 39.632812 87.664062 C 39.632812 86.972656 39.410156 86.332031 39.011719 85.796875 C 41.585938 84 41.519531 80.3125 38.835938 78.515625 L 38.148438 78.160156 L 38.148438 61.308594 L 92.472656 29.910156 C 97.441406 27.023438 96.753906 27.492188 103.207031 31.21875 L 103.207031 47.164062 L 100.746094 45.742188 C 97.21875 43.722656 93.605469 45.273438 89.964844 47.316406 L 66.1875 61.0625 Z M 131.269531 47.429688 L 145.109375 55.421875 C 148.328125 57.289062 149.546875 57.53125 147.75 58.574219 L 131.3125 68.078125 L 131.269531 47.40625 Z M 121.929688 58 C 128.894531 62.015625 128.851562 62.394531 121.929688 58 Z M 71.53125 92.105469 L 71.53125 74.71875 C 71.554688 69.789062 72.730469 68.191406 76.832031 65.769531 L 91.40625 57.355469 C 95.554688 54.980469 97.53125 54.777344 101.789062 57.222656 L 112.546875 63.4375 L 112.546875 36.660156 L 121.929688 42.078125 L 121.929688 91.859375 C 121.90625 96.632812 121.109375 98.453125 116.851562 100.941406 L 101.808594 109.644531 L 96.730469 112.574219 L 91.429688 109.511719 L 76.855469 101.097656 C 72.730469 98.699219 71.554688 97.078125 71.554688 92.148438 Z M 71.53125 92.105469 " fill-opacity="1" fill-rule="evenodd"/></g><path fill="#ececec" d="M 92.425781 67.566406 L 82.757812 73.164062 C 81.113281 74.117188 80.914062 75.9375 80.894531 77.871094 L 80.894531 90.371094 C 80.894531 92.257812 82.378906 93.347656 84.042969 94.34375 L 84.488281 94.613281 L 94.847656 100.605469 L 96.710938 101.671875 L 110.683594 93.589844 C 112.304688 92.660156 112.523438 90.835938 112.546875 88.90625 L 112.546875 74.230469 L 98.570312 66.167969 L 96.710938 65.105469 L 92.40625 67.589844 Z M 92.425781 67.566406 " fill-opacity="1" fill-rule="evenodd"/><g clip-path="url(#6c42ba5ed4)"><path fill="#ececec" d="M 122.175781 56.117188 L 127.664062 56.117188 L 127.664062 62.15625 L 122.175781 62.15625 L 122.175781 56.117188 " fill-opacity="1" fill-rule="nonzero"/></g><g clip-path="url(#d7fc81e8cd)"><g clip-path="url(#dd5e9c490e)"><path fill="#215598" d="M 385.828125 223.585938 L 542.515625 289.398438 C 545.265625 290.554688 547.445312 292.753906 548.570312 295.511719 C 549.699219 298.273438 549.683594 301.367188 548.527344 304.117188 L 482.714844 460.808594 C 481.558594 463.558594 479.359375 465.734375 476.597656 466.863281 C 473.839844 467.988281 470.746094 467.972656 467.996094 466.820312 L 311.304688 401.003906 C 308.554688 399.851562 306.378906 397.652344 305.25 394.890625 C 304.125 392.128906 304.136719 389.035156 305.292969 386.285156 L 371.109375 229.597656 C 372.261719 226.847656 374.460938 224.667969 377.222656 223.542969 C 379.980469 222.414062 383.078125 222.429688 385.828125 223.585938 " fill-opacity="1" fill-rule="nonzero"/></g></g><g clip-path="url(#8d198ae0fd)"><g clip-path="url(#8b14dfec9c)"><path fill="#ececec" d="M 363.871094 308.855469 C 364.292969 307.445312 364.71875 306.027344 365.140625 304.621094 C 369.917969 293.824219 376.726562 288.222656 385.394531 287.339844 C 389.96875 268.328125 408.617188 259.09375 420.445312 271.664062 C 424.277344 269.808594 428.328125 268.519531 433.089844 269.039062 C 434.382812 269.425781 435.671875 269.8125 436.964844 270.199219 C 447.714844 276.117188 452.289062 289.089844 444.960938 305.945312 C 449.511719 312.207031 453.023438 321.980469 448.558594 334.214844 C 446.242188 340.535156 442.660156 344.34375 438.757812 347.449219 C 439.789062 352.253906 440.226562 357.261719 438.308594 363.730469 C 433.867188 378.691406 422.144531 386.078125 410.101562 382.734375 C 404.421875 391.507812 397.246094 396.453125 387.769531 395.546875 C 386.476562 395.160156 385.183594 394.769531 383.894531 394.386719 C 375.617188 389.773438 371.894531 381.953125 372.601562 370.996094 C 357.46875 367.132812 354.265625 343.832031 365.894531 328.964844 C 363.839844 323.976562 361.988281 317.238281 363.871094 308.855469 " fill-opacity="1" fill-rule="nonzero"/></g></g><g clip-path="url(#b7db3483fd)"><g clip-path="url(#624bf192c6)"><path fill="#ececec" d="M 92.011719 423.855469 L 1.765625 453.1875 L 31.660156 468.414062 L 1.203125 528.203125 L 60.992188 558.660156 L 91.449219 498.871094 L 121.34375 514.101562 L 92.011719 423.855469 " fill-opacity="1" fill-rule="nonzero"/></g></g><path stroke-linecap="butt" transform="matrix(0.0119931, 1.883642, -1.883918, 0.0119948, 236.585248, 27.470877)" fill="none" stroke-linejoin="miter" d="M 0.000946632 -0.00036014 L 85.214442 0.000934746 " stroke="#215598" stroke-width="1" stroke-opacity="1" stroke-miterlimit="4"/><path stroke-linecap="butt" transform="matrix(0.0119931, 1.883642, -1.883918, 0.0119948, 228.078997, 28.047952)" fill="none" stroke-linejoin="miter" d="M -0.000574524 0.000459234 L 85.215008 -0.000306065 " stroke="#215598" stroke-width="1" stroke-opacity="1" stroke-miterlimit="4"/><path stroke-linecap="butt" transform="matrix(0.0119931, 1.883642, -1.883918, 0.0119948, 219.57273, 28.625024)" fill="none" stroke-linejoin="miter" d="M -0.00000783872 -0.000790475 L 85.215561 0.000517613 " stroke="#215598" stroke-width="1" stroke-opacity="1" stroke-miterlimit="4"/><path stroke-linecap="butt" transform="matrix(1.221914, -1.433589, 1.433799, 1.222093, 195.838033, 341.846282)" fill="none" stroke-linejoin="miter" d="M 0.0000680535 0.00120465 L 85.215259 0.000767273 " stroke="#215598" stroke-width="1" stroke-opacity="1" stroke-miterlimit="4"/><path stroke-linecap="butt" transform="matrix(1.221914, -1.433589, 1.433799, 1.222093, 202.653664, 346.968453)" fill="none" stroke-linejoin="miter" d="M -0.000574696 -0.000431262 L 85.214617 -0.000868644 " stroke="#215598" stroke-width="1" stroke-opacity="1" stroke-miterlimit="4"/><path stroke-linecap="butt" transform="matrix(1.221914, -1.433589, 1.433799, 1.222093, 209.469281, 352.090658)" fill="none" stroke-linejoin="miter" d="M 0.00014626 -0.000494923 L 85.215338 -0.000932305 " stroke="#215598" stroke-width="1" stroke-opacity="1" stroke-miterlimit="4"/><g clip-path="url(#ae6f7dbd74)"><g clip-path="url(#4a604e7654)"><path fill="#215598" d="M 377.167969 71.785156 L 341.039062 55.054688 L 353.199219 92.957031 L 359.800781 81.160156 L 373.15625 96.273438 L 377.992188 91.980469 L 364.644531 76.902344 Z M 377.167969 71.785156 " fill-opacity="1" fill-rule="nonzero"/></g></g><g clip-path="url(#a42507c3c7)"><g clip-path="url(#962967dfda)"><path fill="#ececec" d="M 373.554688 97.613281 C 373.402344 97.65625 373.238281 97.664062 373.074219 97.671875 C 372.695312 97.65625 372.347656 97.46875 372.105469 97.210938 L 360.058594 83.574219 L 354.4375 93.628906 C 354.167969 94.121094 353.628906 94.40625 353.066406 94.324219 C 352.511719 94.28125 352.0625 93.875 351.863281 93.351562 L 339.710938 55.488281 C 339.554688 54.953125 339.710938 54.367188 340.101562 54.003906 C 340.53125 53.625 341.136719 53.570312 341.621094 53.804688 L 377.753906 70.53125 C 378.234375 70.761719 378.558594 71.292969 378.550781 71.832031 C 378.546875 72.375 378.199219 72.890625 377.675781 73.089844 L 366.960938 77.421875 L 379.003906 91.054688 C 379.515625 91.652344 379.472656 92.496094 378.875 93.003906 L 374.042969 97.300781 C 373.925781 97.460938 373.746094 97.554688 373.554688 97.613281 Z M 359.40625 79.820312 C 359.484375 79.800781 359.558594 79.777344 359.648438 79.792969 C 360.089844 79.746094 360.550781 79.898438 360.828125 80.273438 L 373.25 94.335938 L 376.015625 91.898438 L 363.582031 77.796875 C 363.277344 77.472656 363.179688 77.003906 363.257812 76.5625 C 363.335938 76.125 363.691406 75.773438 364.085938 75.570312 L 373.644531 71.664062 L 343.332031 57.617188 L 353.535156 89.449219 L 358.554688 80.449219 C 358.765625 80.175781 359.0625 79.921875 359.40625 79.820312 Z M 359.40625 79.820312 " fill-opacity="1" fill-rule="nonzero"/></g></g><g clip-path="url(#4936ce5e38)"><g clip-path="url(#0ff5e7c3b2)"><path fill="#215598" d="M 256.441406 437.097656 L 253.121094 397.421875 L 226.191406 426.730469 L 239.710938 426.636719 L 233.175781 445.71875 L 239.296875 447.796875 L 245.804688 428.742188 Z M 256.441406 437.097656 " fill-opacity="1" fill-rule="nonzero"/></g></g><g clip-path="url(#b361f45331)"><g clip-path="url(#26d61a4ef1)"><path fill="#ececec" d="M 232.207031 446.722656 C 232.09375 446.613281 232.003906 446.472656 231.917969 446.335938 C 231.742188 446 231.734375 445.605469 231.839844 445.265625 L 237.738281 428.054688 L 226.21875 428.140625 C 225.65625 428.148438 225.144531 427.820312 224.933594 427.289062 C 224.699219 426.789062 224.828125 426.195312 225.1875 425.765625 L 252.089844 396.484375 C 252.476562 396.082031 253.066406 395.929688 253.574219 396.085938 C 254.113281 396.273438 254.460938 396.773438 254.5 397.308594 L 257.820312 436.984375 C 257.859375 437.519531 257.558594 438.0625 257.085938 438.324219 C 256.613281 438.585938 255.992188 438.542969 255.5625 438.183594 L 246.496094 431.011719 L 240.601562 448.222656 C 240.332031 448.960938 239.582031 449.339844 238.84375 449.074219 L 232.71875 446.996094 C 232.523438 446.972656 232.351562 446.863281 232.207031 446.722656 Z M 240.675781 425.632812 C 240.734375 425.6875 240.792969 425.742188 240.820312 425.824219 C 241.082031 426.1875 241.175781 426.664062 240.984375 427.089844 L 234.902344 444.839844 L 238.390625 446.039062 L 244.5 428.261719 C 244.632812 427.835938 244.992188 427.519531 245.414062 427.371094 C 245.832031 427.222656 246.3125 427.351562 246.683594 427.597656 L 254.804688 433.972656 L 252.03125 400.679688 L 229.402344 425.289062 L 239.710938 425.199219 C 240.050781 425.25 240.417969 425.382812 240.675781 425.632812 Z M 240.675781 425.632812 " fill-opacity="1" fill-rule="nonzero"/></g></g><path stroke-linecap="butt" transform="matrix(3.756617, 0, 0, 3.74856, 39.575957, 248.154692)" fill="none" stroke-linejoin="miter" d="M 2.749893 0.00041559 L 27.786965 0.00041559 " stroke="#ececec" stroke-width="1" stroke-opacity="1" stroke-miterlimit="4"/><path stroke-linecap="round" transform="matrix(3.756617, 0, 0, 3.74856, 39.575957, 248.154692)" fill-opacity="1" fill="#ececec" fill-rule="nonzero" stroke-linejoin="round" d="M 2.500333 -1.50016 L 0.499696 0.00041559 L 2.500333 1.49995 Z M 2.500333 -1.50016 " stroke="#ececec" stroke-width="1" stroke-opacity="1" stroke-miterlimit="4"/><path stroke-linecap="round" transform="matrix(3.756617, 0, 0, 3.74856, 154.291831, 248.154692)" fill-opacity="1" fill="#ececec" fill-rule="nonzero" stroke-linejoin="round" d="M -2.500493 -1.50016 L -0.499856 0.00041559 L -2.500493 1.49995 Z M -2.500493 -1.50016 " stroke="#ececec" stroke-width="1" stroke-opacity="1" stroke-miterlimit="4"/></svg>