<svg xmlns="http://www.w3.org/2000/svg" xmlns:xlink="http://www.w3.org/1999/xlink" width="500" zoomAndPan="magnify" viewBox="0 0 375 374.999991" height="500" preserveAspectRatio="xMidYMid meet" version="1.0"><defs><clipPath id="id1"><path d="M 0 43.03125 L 374.667969 43.03125 L 374.667969 331.996094 L 0 331.996094 Z M 0 43.03125 " clip-rule="nonzero"/></clipPath><clipPath id="id2"><path d="M 257.648438 149.488281 L 272.816406 149.488281 L 272.816406 166.175781 L 257.648438 166.175781 Z M 257.648438 149.488281 " clip-rule="nonzero"/></clipPath></defs><g clip-path="url(#id1)"><path fill="#ececec" d="M 102.984375 163.15625 C 95.628906 167.390625 93.054688 174.566406 92.195312 182.851562 L 51.003906 159.042969 L 34.082031 168.800781 L 34.082031 179.230469 L 91.765625 212.550781 L 91.765625 267.160156 C 91.765625 278.453125 100.472656 284.957031 110.402344 290.847656 L 176.238281 328.890625 C 185.984375 334.472656 195.976562 330.179688 206.03125 324.53125 L 271.867188 286.488281 C 281.492188 280.84375 282.777344 270.046875 282.902344 258.507812 L 282.902344 212.550781 L 358.179688 169.046875 C 377.609375 157.816406 382.636719 153.214844 358.179688 139.101562 L 204.683594 50.4375 C 188.191406 40.863281 185.371094 41.539062 168.453125 51.296875 L 16.488281 139.101562 C -7.96875 153.214844 -2.882812 157.816406 16.488281 169.046875 L 16.488281 210.402344 C 7.664062 213.960938 6.253906 225.988281 14.097656 231.511719 C 13.058594 232.921875 12.382812 234.703125 12.382812 236.664062 L 12.382812 276.855469 L 29.546875 276.855469 L 29.546875 236.664062 C 29.546875 234.761719 28.933594 232.984375 27.832031 231.511719 C 34.941406 226.539062 34.757812 216.355469 27.339844 211.382812 L 25.441406 210.402344 L 25.441406 163.832031 L 175.566406 77.066406 C 189.296875 69.089844 187.394531 70.378906 205.234375 80.6875 L 205.234375 124.742188 L 198.429688 120.816406 C 188.683594 115.234375 178.691406 119.527344 168.636719 125.171875 L 102.921875 163.15625 Z M 282.777344 125.480469 L 321.03125 147.570312 C 329.917969 152.722656 333.289062 153.398438 328.324219 156.28125 L 282.902344 182.546875 L 282.777344 125.417969 Z M 256.972656 154.6875 C 276.21875 165.792969 276.097656 166.835938 256.972656 154.6875 Z M 117.695312 248.9375 L 117.695312 200.890625 C 117.757812 187.269531 121.007812 182.851562 132.347656 176.164062 L 172.621094 152.90625 C 184.085938 146.34375 189.542969 145.789062 201.3125 152.539062 L 231.042969 169.722656 L 231.042969 95.71875 L 256.972656 110.691406 L 256.972656 248.261719 C 256.910156 261.453125 254.703125 266.484375 242.933594 273.359375 L 201.371094 297.410156 L 187.335938 305.511719 L 172.683594 297.042969 L 132.410156 273.789062 C 121.007812 267.160156 117.757812 262.683594 117.757812 249.058594 Z M 117.695312 248.9375 " fill-opacity="1" fill-rule="evenodd"/></g><path fill="#ececec" d="M 175.441406 181.132812 L 148.714844 196.597656 C 144.179688 199.234375 143.628906 204.265625 143.566406 209.605469 L 143.566406 244.152344 C 143.566406 249.367188 147.671875 252.375 152.269531 255.132812 L 153.496094 255.871094 L 182.125 272.4375 L 187.273438 275.382812 L 225.890625 253.046875 C 230.367188 250.472656 230.980469 245.4375 231.042969 240.101562 L 231.042969 199.542969 L 192.421875 177.269531 L 187.273438 174.324219 L 175.378906 181.195312 Z M 175.441406 181.132812 " fill-opacity="1" fill-rule="evenodd"/><g clip-path="url(#id2)"><path fill="#ececec" d="M 257.652344 149.488281 L 272.8125 149.488281 L 272.8125 166.175781 L 257.652344 166.175781 L 257.652344 149.488281 " fill-opacity="1" fill-rule="nonzero"/></g></svg>